<?xml version="1.0" encoding="utf-8"?>
<!-- Generator: Adobe Illustrator 21.0.0, SVG Export Plug-In . SVG Version: 6.00 Build 0)  -->
<svg version="1.1" id="图层_1" xmlns="http://www.w3.org/2000/svg" xmlns:xlink="http://www.w3.org/1999/xlink" x="0px" y="0px"
	 viewBox="0 0 1000 500" style="enable-background:new 0 0 1000 500;" xml:space="preserve">
<style type="text/css">
	.st0{fill:#6ABE8C;}
	.st1{fill:#4BB78C;}
	.st2{fill:#7A7A7A;}
	.st3{font-family:'Verdana';}
	.st4{font-size:94.8332px;}
	.st5{fill:#282828;}
</style>
<g>
	<path class="st0" d="M69.8,325.3"/>
	<path class="st1" d="M69.8,325.3c0,0.5,0.7,12.5,16.5,12.5c11.5,0,69.6-31.6,99.4-113.8C140.6,303.9,74.9,323.9,69.8,325.3
		L69.8,325.3z"/>
	<path class="st1" d="M185.7,75.5c4.6,14.6,8.1,34,7.1,42.9c-2.2,20.1-17.6,31.3-35.5,37.9c-22.9,8.4-42.9,14.2-60.6,32.4
		c-37.7,38.8-24.6,85.5,7.1,101.6c31.4-16.1,63.5-51.9,87.3-103.8c0,0,21.4,65.6-44.2,128.6c31.9,37.2,98.2,11.3,113.3-48
		c5.1-20.1,4.5-40.1,0.8-59.1c-5.2-26.3-20.5-48.8-35.3-70.6C212.4,117.6,198.5,94.8,185.7,75.5z"/>
</g>
<text transform="matrix(1 0 0 1 648.5977 408.1455)" class="st2 st3 st4">yiye.ai</text>
<path class="st5" d="M716.4,218.4l-22.3-18.9h20.1v-11.8h-28.7c0.5-2.8,0.7-5.5,0.7-8.5l0.2-4.7h27.9V163h-56.6l3.8-7.7l-12.4,0
	l-5.7,11.4c-1.4,3.8,1.2,7.8,5.4,7.8h25.8v4.7c0,2.9-0.3,5.9-0.9,8.5h-33.4v11.8h28.5c-1,1.7-2.3,3.5-3.6,5
	c-5.5,6.1-23,15.1-23,15.1l4.2,11.1c0,0,21.6-11.2,28.2-19c2.2-2.6,4.2-5.4,5.7-8.3l28.7,23.9L716.4,218.4z"/>
<path class="st5" d="M723.8,159.1v68.2h65.1v-68.2H723.8z M777.3,215.4h-42v-44.5h42V215.4z"/>
<path class="st5" d="M651.7,236.5v69.4h129.5v-69.4H651.7z M768.6,294.3H664.2c-0.8,0-1.4-0.7-1.4-1.5v-14.5c0-0.8,0.6-1.5,1.4-1.5
	h104.5c0.8,0,1.4,0.7,1.4,1.5v14.5C770.1,293.7,769.4,294.3,768.6,294.3z M768.6,265.3H664.2c-0.8,0-1.4-0.7-1.4-1.5v-14.2
	c0-0.8,0.6-1.5,1.4-1.5h104.5c0.8,0,1.4,0.7,1.4,1.5v14.2C770.1,264.6,769.4,265.3,768.6,265.3z"/>
<path class="st5" d="M445.9,181.3v103h60.6v-103H445.9z M494.9,272.8h-37.5v-79.9h37.5V272.8z"/>
<rect x="565.6" y="150" class="st5" width="11.6" height="161.2"/>
<rect x="517" y="213.9" class="st5" width="108.8" height="11.6"/>
<rect x="287.4" y="224.8" class="st5" width="144.9" height="11.6"/>
<path class="st5" d="M861.8,203.3h-47.2c-1.9,0-3.5-0.7-4.5-2.3c-1.2-1.6-1.4-3.1-1-5l10.2-37.7h12.1l-8.8,33.2h39.3V203.3z"/>
<path class="st5" d="M917.8,303c-3.1,0-5.9-0.7-8.5-1.7c-5.4-2.2-9.3-6.2-11.6-11.4c-1-2.8-1.7-5.5-1.7-8.7v-39.8
	c0-3.1,2.6-5.7,5.7-5.7h0.3c3.1,0,4,2.6,4,5.7v22l45.2-10.8l3.1,11.2c0,0-48,11.5-48.3,11.5l-0.1,15.9h48.2V303H917.8z"/>
<path class="st5" d="M807.1,212.9v90.6h11.8v-18.1h53.9v18.1H883v-90.6H807.1z M872.8,274.8h-53.9V255h53.9V274.8z M872.8,244.3
	h-53.9v-19.8h53.9V244.3z"/>
<polygon class="st5" points="954.1,291 906.1,291 906.1,235.3 896,235.2 896,302.9 908,303 908,302.9 954.1,302.9 "/>
<path class="st5" d="M917.8,219.5c-3.1,0-5.9-0.7-8.5-1.7c-5.4-2.2-9.3-6.2-11.6-11.4c-1-2.8-1.7-5.5-1.7-8.7v-33.8
	c0-3.1,2.6-5.7,5.7-5.7h0.3c3.1,0,4,2.6,4,5.7v16l45.2-10.8l3.1,11.2c0,0-48,11.5-48.3,11.5l-0.1,15.9h48.2v11.8H917.8z"/>
<polygon class="st5" points="954.1,207.5 906.1,207.5 906.1,157.8 896,157.7 896,219.4 908,219.5 908,219.4 954.1,219.4 "/>
<path class="st5" d="M814.2,203.3l-0.1-11.8h56.6l-6.4-19.3h13l7.7,23.3c1.4,3.8-1.2,7.8-5.4,7.8H814.2z"/>
</svg>
