<?xml version="1.0" encoding="utf-8"?>
<!-- Generator: Adobe Illustrator 21.0.0, SVG Export Plug-In . SVG Version: 6.00 Build 0)  -->
<svg version="1.1" id="图层_1" xmlns="http://www.w3.org/2000/svg" xmlns:xlink="http://www.w3.org/1999/xlink" x="0px" y="0px"
	 viewBox="0 0 1000 1000" style="enable-background:new 0 0 1000 1000;" xml:space="preserve">
<style type="text/css">
	.st0{fill:#ffffff;}
	.st1{fill:#ffffff;}
</style>
<g>
	<path class="st0" d="M251.6,755.9"/>
	<path class="st1" d="M251.6,755.9c0,1.3,1.7,31.1,40.8,31.1c28.4,0,172.7-78.5,246.7-282.4C427.1,702.8,264.3,752.3,251.6,755.9
		L251.6,755.9z"/>
	<path class="st1" d="M539.2,136c11.5,36.3,20.1,84.3,17.7,106.4c-5.4,49.9-43.6,77.6-88.2,94c-56.8,20.8-106.5,35.3-150.4,80.5
		c-93.6,96.3-61.1,212.1,17.7,252c77.8-40,157.5-128.7,216.6-257.5c0,0,53,162.7-109.7,319.1c79,92.4,243.6,27.9,281.1-119.1
		c12.7-49.8,11.1-99.6,1.9-146.7c-12.8-65.3-51-121-87.6-175.2C605.5,240.5,570.8,184.1,539.2,136z"/>
</g>
</svg>
